<?xml version="1.0" encoding="UTF-8" standalone="no"?>
<!DOCTYPE svg PUBLIC "-//W3C//DTD SVG 1.1//EN" "http://www.w3.org/Graphics/SVG/1.1/DTD/svg11.dtd">
<svg version="1.1" xmlns="http://www.w3.org/2000/svg" xmlns:xlink="http://www.w3.org/1999/xlink" preserveAspectRatio="xMidYMid meet" viewBox="0 0 100 100" width="100" height="100"><defs><path d="M100 50C100 77.6 77.6 100 50 100C22.4 100 0 77.6 0 50C0 22.4 22.4 0 50 0C77.6 0 100 22.4 100 50Z" id="b2d0dguFij"></path><path d="M61.29 36.51C57.05 40.75 23.14 74.66 18.9 78.9C17.96 79.84 17.96 81.36 18.9 82.3C19.37 82.77 19.98 83 20.6 83C21.21 83 21.82 82.77 22.29 82.3C26.53 78.06 60.45 44.14 64.69 39.9C65.62 38.97 65.62 37.45 64.69 36.51C63.75 35.57 62.23 35.57 61.29 36.51Z" id="c1SbSGRwm"></path><path d="M64.55 36.39C59.98 40.96 23.35 77.59 18.78 82.16C18.82 82.21 18.85 82.25 18.9 82.3C19.37 82.77 19.98 83 20.6 83C21.21 83 21.82 82.77 22.29 82.3C26.53 78.06 60.45 44.14 64.69 39.9C65.62 38.97 65.62 37.45 64.69 36.51C64.64 36.46 64.6 36.43 64.55 36.39Z" id="havOlMQJY"></path><path d="M76.48 33.59C78.27 28.3 79.27 25.36 79.47 24.77C79.76 23.91 79.54 22.95 78.89 22.3C78.24 21.66 77.29 21.43 76.42 21.73C75.83 21.93 72.89 22.92 67.61 24.72C63.13 21.38 60.65 19.52 60.15 19.15C59.42 18.6 58.44 18.52 57.62 18.93C56.81 19.35 56.3 20.19 56.31 21.11C56.32 21.73 56.36 24.83 56.43 30.41C51.87 33.63 49.34 35.43 48.83 35.78C48.09 36.31 47.7 37.22 47.85 38.12C47.99 39.02 48.63 39.77 49.51 40.04C50.1 40.22 53.06 41.14 58.39 42.8C60.05 48.13 60.97 51.09 61.15 51.69C61.43 52.56 62.17 53.2 63.07 53.35C63.2 53.37 63.32 53.38 63.45 53.38C64.22 53.38 64.96 53 65.41 52.36C65.77 51.85 67.56 49.32 70.78 44.76C76.36 44.83 79.47 44.87 80.09 44.88C80.99 44.89 81.84 44.39 82.26 43.57C82.67 42.76 82.59 41.78 82.04 41.04C81.3 40.05 79.45 37.56 76.48 33.59Z" id="gTHnoMEkn"></path><path d="M41.71 19.16L45.22 21.08L41.71 22.99L39.79 26.5L37.88 22.99L34.37 21.08L37.88 19.16L39.79 15.65L41.71 19.16Z" id="a1NNYUb67"></path><path d="M68.93 64.7L71.76 66.25L68.93 67.8L67.37 70.63L65.82 67.8L62.99 66.25L65.82 64.7L67.37 61.86L68.93 64.7Z" id="d3qAGhylOY"></path><path d="M71.11 12.34L73.94 13.89L71.11 15.44L69.56 18.27L68 15.44L65.17 13.89L68 12.34L69.56 9.5L71.11 12.34Z" id="c41yX7Fp0"></path><path d="M87.26 29.96L88.95 30.89L87.26 31.82L86.33 33.51L85.4 31.82L83.7 30.89L85.4 29.96L86.33 28.26L87.26 29.96Z" id="baMl0K5MS"></path><path d="M86.42 55.56L87.54 59.4L83.7 58.28L79.86 59.4L80.99 55.56L79.86 51.72L83.7 52.85L87.54 51.72L86.42 55.56Z" id="e29IiGD4US"></path><path d="M82.04 41.04C81.67 40.55 79.82 38.06 76.48 33.59C78.27 28.3 79.27 25.36 79.47 24.77C79.76 23.91 79.54 22.95 78.89 22.3C78.85 22.26 78.8 22.22 78.76 22.18C77.39 23.55 70.53 30.41 58.2 42.74L58.39 42.8C60.05 48.13 60.97 51.09 61.15 51.69C61.43 52.56 62.17 53.2 63.07 53.35C63.2 53.37 63.32 53.38 63.45 53.38C64.22 53.38 64.96 53 65.41 52.36C65.77 51.85 67.56 49.32 70.78 44.76C76.37 44.83 79.47 44.87 80.09 44.88C80.99 44.89 81.84 44.39 82.26 43.57C82.67 42.76 82.59 41.78 82.04 41.04Z" id="b2gd24Vktq"></path></defs><g><g><g><use xlink:href="#b2d0dguFij" opacity="1" fill="#a333c8" fill-opacity="1"></use></g><g><use xlink:href="#c1SbSGRwm" opacity="1" fill="#a66300" fill-opacity="1"></use><g><use xlink:href="#c1SbSGRwm" opacity="1" fill-opacity="0" stroke="#000000" stroke-width="1" stroke-opacity="0"></use></g></g><g><use xlink:href="#havOlMQJY" opacity="1" fill="#875100" fill-opacity="1"></use><g><use xlink:href="#havOlMQJY" opacity="1" fill-opacity="0" stroke="#000000" stroke-width="1" stroke-opacity="0"></use></g></g><g><use xlink:href="#gTHnoMEkn" opacity="1" fill="#face17" fill-opacity="1"></use><g><use xlink:href="#gTHnoMEkn" opacity="1" fill-opacity="0" stroke="#000000" stroke-width="1" stroke-opacity="0"></use></g></g><g><use xlink:href="#a1NNYUb67" opacity="1" fill="#e6bd15" fill-opacity="1"></use><g><use xlink:href="#a1NNYUb67" opacity="1" fill-opacity="0" stroke="#000000" stroke-width="1" stroke-opacity="0"></use></g></g><g><use xlink:href="#d3qAGhylOY" opacity="1" fill="#face17" fill-opacity="1"></use><g><use xlink:href="#d3qAGhylOY" opacity="1" fill-opacity="0" stroke="#000000" stroke-width="1" stroke-opacity="0"></use></g></g><g><use xlink:href="#c41yX7Fp0" opacity="1" fill="#face17" fill-opacity="1"></use><g><use xlink:href="#c41yX7Fp0" opacity="1" fill-opacity="0" stroke="#000000" stroke-width="1" stroke-opacity="0"></use></g></g><g><use xlink:href="#baMl0K5MS" opacity="1" fill="#face17" fill-opacity="1"></use><g><use xlink:href="#baMl0K5MS" opacity="1" fill-opacity="0" stroke="#000000" stroke-width="1" stroke-opacity="0"></use></g></g><g><use xlink:href="#e29IiGD4US" opacity="1" fill="#e6bd15" fill-opacity="1"></use><g><use xlink:href="#e29IiGD4US" opacity="1" fill-opacity="0" stroke="#000000" stroke-width="1" stroke-opacity="0"></use></g></g><g><use xlink:href="#b2gd24Vktq" opacity="1" fill="#e6bd15" fill-opacity="1"></use><g><use xlink:href="#b2gd24Vktq" opacity="1" fill-opacity="0" stroke="#000000" stroke-width="1" stroke-opacity="0"></use></g></g></g></g></svg>